<!--?xml version="1.0" encoding="utf-8"?-->
<!-- Svg Vector Icons : http://www.onlinewebfonts.com/icon -->

<svg version="1.1" xmlns="http://www.w3.org/2000/svg" xmlns:xlink="http://www.w3.org/1999/xlink" x="0px" y="0px" viewBox="0 0 256 256" enable-background="new 0 0 256 256" xml:space="preserve">
<metadata> Svg Vector Icons : http://www.onlinewebfonts.com/icon </metadata>
<g><g><g><path fill="#ebebeb" data-title="Layer 0" xs="0" d="M170,14.4c-10.8,8.1-29.9,33.4-31.7,41.9c-0.8,3.7-3.3,3.3-5.5-0.8c-2.3-4.4-10.1-11.1-15.7-13.8c-13-6.2-25.6-6.1-38.5,0.3c-10.8,5.5-21.7,19.1-23,29c-0.9,6.1,0.5,6.5,14.1,3.6c11-2.3,33.2-5.4,33.9-4.7c0.2,0.2-0.2,4.5-0.9,9.6c-1,8.2-0.9,10.4,0.5,17.4c2,9.7,4.3,14.4,9.4,19.8c4.7,4.9,11.3,7.4,17.1,6.6c9.5-1.4,22.6-11.9,27.9-22c1.6-3.1,3.3-5.1,4.3-5.1c0.9,0,5.5,4.4,10.4,9.6c19.8,21.7,19.6,21.4,21.4,20.2c3.1-1.8,6.1-9.3,6.6-16.7c0.9-12.7-3.6-24.6-13-34c-10-10-21.1-14-35.4-12.9l-8.5,0.7l0.5-4.7c0.9-9.7,13.1-28.9,25.8-40.6c4.2-3.9,7.3-7.2,7.1-7.5C176.6,9.8,173.5,11.8,170,14.4z"/><path fill="#ebebeb" data-title="Layer 1" xs="1" d="M82.6,79.2c-4.5,0.9-6.1,1.7-8.4,4.4c-6.6,7.9-11.5,23.6-16,51.9c-2.8,17.7-3.5,50.2-1.4,64.9c1.6,10.9,5.1,23.5,8.2,29.6c2.9,5.7,10.2,12.9,14.7,14.7c16.8,6.4,40.1-10.4,63.6-45.7c9.1-13.7,19.3-32.6,25.4-47.3c4.6-11,9.2-24.9,9.2-27.6c0-1.4-2.7-5.3-7.2-10.4l-7.1-8.2l-3.6,4.6c-14.5,18.3-30.9,24.6-44.9,17.1c-5.6-2.9-11.8-9.7-15.2-16.4c-2.7-5.2-4.6-15.2-4.6-24v-8.7L91.8,78C89.8,78.1,85.7,78.6,82.6,79.2z"/></g></g></g>
</svg>