<svg width="219" height="219" viewBox="0 0 219 219" fill="none" xmlns="http://www.w3.org/2000/svg">
<path d="M82.9841 203.373L93.21 183.434L101.724 184.718L105.618 206.785L98.6175 205.729L96.4639 190.63L89.985 204.428L82.9841 203.373Z" fill="#EBEBEB"/>
<path d="M64.1056 195.167L73.3213 176.031L79.3218 178.92L70.1061 198.057L64.1056 195.167Z" fill="#EBEBEB"/>
<path d="M46.5264 176.168L48.3017 174.255L43.4635 169.766L46.8712 166.093L51.7093 170.582L53.7499 168.383L48.252 163.282L51.8637 159.39L62.2437 169.021L47.7968 184.591L37.4168 174.96L41.0285 171.067L46.5264 176.168Z" fill="#EBEBEB"/>
<path d="M42.1595 144.721L37.5554 151.987L37.5704 152.013L44.1695 148.203L47.4995 153.97L29.1051 164.59L24.1551 156.017C23.2951 154.527 22.8286 153.099 22.7555 151.733C22.6651 150.376 22.9289 149.173 23.5469 148.123C24.1376 147.066 25.0045 146.208 26.1476 145.548C27.3774 144.838 28.6686 144.554 30.0212 144.697C31.3639 144.823 32.613 145.406 33.7687 146.448L38.4995 138.382L42.1595 144.721ZM33.7252 154.233L32.4052 151.946C32.0852 151.392 31.724 151.046 31.3215 150.909C30.9017 150.782 30.4233 150.874 29.8864 151.184C29.4014 151.464 29.1054 151.831 28.9982 152.285C28.8811 152.722 28.9775 153.209 29.2875 153.746L30.6075 156.033L33.7252 154.233Z" fill="#EBEBEB"/>
<path d="M34.6131 123.346L28.0721 128.932L28.0787 128.961L35.5077 127.266L36.9897 133.759L16.2822 138.485L14.0792 128.833C13.6965 127.156 13.6716 125.654 14.0046 124.327C14.3181 123.004 14.9248 121.932 15.8247 121.111C16.7007 120.275 17.7821 119.711 19.069 119.417C20.4534 119.101 21.7708 119.21 23.0212 119.746C24.2672 120.261 25.2889 121.187 26.0862 122.523L32.9843 116.21L34.6131 123.346ZM23.75 129.949L23.1626 127.375C23.0202 126.752 22.7769 126.315 22.4327 126.065C22.069 125.82 21.5849 125.766 20.9805 125.904C20.4345 126.029 20.0434 126.292 19.8071 126.695C19.5663 127.078 19.5149 127.572 19.6528 128.177L20.2403 130.75L23.75 129.949Z" fill="#EBEBEB"/>
<path d="M17.6444 101.806L20.2471 102.001L20.7403 95.4194L25.7363 95.7938L25.2431 102.375L28.2347 102.6L28.7952 95.1205L34.0903 95.5173L33.0322 109.638L11.8515 108.05L12.9097 93.9301L18.2049 94.3269L17.6444 101.806Z" fill="#EBEBEB"/>
<path d="M34.0928 78.951C33.7567 79.8074 33.2413 80.5183 32.5468 81.0836C31.8595 81.6304 31.0782 81.979 30.2026 82.1295C29.3158 82.2541 28.4442 82.1484 27.5878 81.8123C26.7128 81.4689 26.0019 80.9535 25.4552 80.2663C24.8972 79.5531 24.5522 78.7624 24.4203 77.8942C24.277 77.0001 24.3735 76.1248 24.7096 75.2684C25.053 74.3934 25.5776 73.6862 26.2835 73.1468C26.978 72.5814 27.7687 72.2365 28.6556 72.1118C29.5238 71.9799 30.3954 72.0857 31.2704 72.4291C32.1268 72.7652 32.8377 73.2805 33.403 73.9751C33.9497 74.6623 34.2854 75.4494 34.41 76.3362C34.542 77.2044 34.4362 78.076 34.0928 78.951Z" fill="#EBEBEB"/>
<path d="M40.7182 39.0292L52.8726 57.8544L47.5044 64.586L26.4466 56.9253L30.8609 51.3899L45.0143 57.0747L36.3039 44.5646L40.7182 39.0292Z" fill="#EBEBEB"/>
<path d="M57.2639 26.7829L69.2289 44.3323L63.7261 48.084L51.7612 30.5347L57.2639 26.7829Z" fill="#EBEBEB"/>
<path d="M82.5069 21.0583L83.2762 23.5524L89.583 21.607L91.0597 26.3944L84.753 28.3398L85.6372 31.2065L92.804 28.9959L94.3692 34.07L80.8383 38.2437L74.5777 17.9473L88.1086 13.7736L89.6737 18.8477L82.5069 21.0583Z" fill="#EBEBEB"/>
<path d="M111.924 33L107.934 25.38H107.904L107.904 33H101.244L101.244 11.76L111.144 11.76C112.864 11.76 114.334 12.07 115.554 12.69C116.774 13.29 117.684 14.12 118.284 15.18C118.904 16.22 119.214 17.4 119.214 18.72C119.214 20.14 118.814 21.4 118.014 22.5C117.234 23.6 116.104 24.39 114.624 24.87L119.244 33L111.924 33ZM107.904 20.94H110.544C111.184 20.94 111.664 20.8 111.984 20.52C112.304 20.22 112.464 19.76 112.464 19.14C112.464 18.58 112.294 18.14 111.954 17.82C111.634 17.5 111.164 17.34 110.544 17.34H107.904V20.94Z" fill="#EBEBEB"/>
<path d="M134.209 37.152L132.642 28.6945L132.613 28.6856L130.367 35.9671L124.003 34.004L130.264 13.7077L139.724 16.6258C141.368 17.1327 142.681 17.8622 143.664 18.8143C144.653 19.7472 145.278 20.8086 145.539 21.9984C145.825 23.1749 145.773 24.3939 145.384 25.6552C144.965 27.0121 144.212 28.0982 143.123 28.9136C142.054 29.7348 140.741 30.1566 139.185 30.1791L141.204 39.3096L134.209 37.152ZM133.922 24.4429L136.445 25.2211C137.056 25.4097 137.556 25.4174 137.945 25.2442C138.339 25.0518 138.627 24.6594 138.81 24.067C138.975 23.5318 138.942 23.0613 138.712 22.6553C138.5 22.2552 138.098 21.9637 137.506 21.781L134.983 21.0028L133.922 24.4429Z" fill="#EBEBEB"/>
<path d="M161.348 33.2269L159.877 35.3834L165.33 39.1013L162.508 43.2408L157.055 39.5228L155.365 42.0016L161.562 46.2265L158.571 50.6138L146.871 42.6372L158.836 25.0879L170.536 33.0645L167.544 37.4518L161.348 33.2269Z" fill="#EBEBEB"/>
<path d="M172.916 58.8991C172.343 58.1798 171.985 57.3781 171.843 56.4939C171.713 55.6254 171.801 54.7744 172.109 53.9409C172.444 53.1106 172.972 52.4086 173.691 51.835C174.426 51.2489 175.228 50.8909 176.096 50.7611C176.993 50.6344 177.85 50.731 178.668 51.0509C179.514 51.3739 180.224 51.895 180.797 52.6143C181.383 53.3493 181.733 54.1572 181.848 55.0382C181.99 55.9224 181.893 56.7796 181.558 57.6099C181.238 58.4278 180.711 59.1298 179.976 59.7159C179.256 60.2895 178.455 60.6474 177.571 60.7897C176.702 60.9196 175.853 60.8168 175.022 60.4813C174.204 60.1614 173.502 59.634 172.916 58.8991Z" fill="#EBEBEB"/>
<path d="M204.177 84.5978L181.797 85.7112L178.651 77.6964L195.814 63.2901L198.401 69.8807L186.401 79.2955L201.59 78.0072L204.177 84.5978Z" fill="#EBEBEB"/>
<path d="M206.51 105.05L185.329 106.637L184.832 99.9959L206.012 98.4086L206.51 105.05Z" fill="#EBEBEB"/>
<path d="M198.846 129.773L196.301 129.192L194.833 135.627L189.948 134.512L191.417 128.078L188.492 127.41L186.823 134.722L181.646 133.54L184.797 119.735L205.505 124.462L202.354 138.267L197.177 137.085L198.846 129.773Z" fill="#EBEBEB"/>
<path d="M173.796 149.279L182.39 149.633L182.405 149.607L175.806 145.797L179.136 140.03L197.53 150.65L192.58 159.223C191.72 160.713 190.716 161.831 189.569 162.577C188.44 163.334 187.266 163.707 186.048 163.697C184.837 163.714 183.661 163.392 182.517 162.732C181.288 162.022 180.396 161.046 179.844 159.803C179.281 158.577 179.162 157.204 179.486 155.682L170.136 155.618L173.796 149.279ZM186.25 151.827L184.93 154.114C184.61 154.668 184.491 155.154 184.574 155.571C184.673 155.998 184.992 156.366 185.529 156.676C186.014 156.956 186.48 157.029 186.927 156.895C187.364 156.778 187.737 156.451 188.047 155.914L189.367 153.627L186.25 151.827Z" fill="#EBEBEB"/>
<path d="M159.057 166.501L167.165 169.373L167.187 169.353L162.004 163.767L166.886 159.237L181.333 174.807L174.076 181.541C172.815 182.711 171.527 183.483 170.211 183.859C168.908 184.249 167.677 184.259 166.516 183.89C165.354 183.55 164.324 182.896 163.426 181.928C162.461 180.887 161.897 179.691 161.735 178.341C161.559 177.004 161.85 175.656 162.608 174.298L153.692 171.48L159.057 166.501ZM170.207 172.608L168.272 174.403C167.803 174.839 167.546 175.268 167.502 175.691C167.471 176.128 167.667 176.574 168.089 177.029C168.47 177.439 168.894 177.646 169.36 177.65C169.813 177.667 170.266 177.464 170.721 177.042L172.656 175.247L170.207 172.608Z" fill="#EBEBEB"/>
<path d="M148.887 191.967L147.755 189.616L141.808 192.479L139.635 187.965L145.581 185.102L144.279 182.399L137.522 185.653L135.218 180.869L147.976 174.725L157.192 193.862L144.434 200.005L142.13 195.221L148.887 191.967Z" fill="#EBEBEB"/>
<path d="M120.87 189.15C121.78 189.012 122.653 189.103 123.49 189.422C124.307 189.744 125 190.246 125.568 190.929C126.119 191.635 126.463 192.443 126.6 193.352C126.74 194.282 126.65 195.155 126.328 195.972C125.989 196.812 125.477 197.506 124.791 198.055C124.088 198.626 123.282 198.98 122.372 199.117C121.443 199.257 120.568 199.156 119.748 198.815C118.911 198.496 118.217 197.984 117.666 197.278C117.117 196.592 116.773 195.784 116.633 194.855C116.496 193.945 116.587 193.072 116.906 192.235C117.227 191.418 117.741 190.734 118.447 190.182C119.133 189.634 119.94 189.29 120.87 189.15Z" fill="#EBEBEB"/>
</svg>
