<svg width="2427" height="1268" viewBox="0 0 2427 1268" fill="none" xmlns="http://www.w3.org/2000/svg">
<rect width="2427" height="1268" fill="#E6001E"/>
<path d="M707.345 693.816H733.42V686.392H671.704V693.845H698.121V750.774H707.345V693.816ZM779.971 750.803H788.939V724.803C788.939 709.697 779.943 703.075 767.091 703.075C758.98 703.075 751.869 706.257 747.585 712.936V686.392H738.646V750.803H747.585V729.562C747.585 715.057 756.581 709.324 765.72 709.324C774.174 709.324 779.971 713.91 779.971 725.205V750.803ZM825.809 709.295C816.67 709.295 810.187 713.824 808.788 723.915H841.716C841.488 713.337 833.606 709.295 825.809 709.295ZM808.416 730.164C809.33 739.451 814.699 746.274 825.295 746.274C833.063 746.274 838.603 743.407 840.631 736.929H850.113C848.342 748.137 837.261 752.322 825.837 752.322C809.13 752.322 799.534 743.149 799.534 728.616C799.534 711.99 809.473 703.075 826.066 703.075C842.23 703.075 851.198 711.847 851.198 727.441V730.164H808.416ZM1195.54 711.474C1197.11 711.474 1199.19 711.646 1202.22 712.191V704.107C1200.96 704.021 1199.73 703.849 1196.71 703.849C1188.2 703.849 1182.57 708.464 1179.03 713.968L1178.74 704.795H1170.18C1170.49 708.464 1170.66 711.703 1170.66 715.258V750.803H1179.6V728.559C1179.6 717.236 1184.83 711.474 1195.54 711.474ZM1466.88 711.474C1468.53 711.474 1470.53 711.646 1473.59 712.191V704.107C1472.36 704.021 1471.1 703.849 1468.08 703.849C1464.51 703.83 1461 704.756 1457.9 706.532C1454.8 708.309 1452.22 710.873 1450.43 713.968L1450.14 704.795H1441.54C1441.83 708.464 1441.97 711.703 1441.97 715.258V750.803H1450.94V728.559C1450.94 717.236 1456.17 711.474 1466.88 711.474ZM1033.78 744.095L1019.18 704.823H1009.07L1027.35 750.774H1039.4L1054.8 711.99L1070.96 750.774H1082.5L1100.63 704.795H1091.21L1076.79 744.095L1060.79 704.823H1049.2L1033.78 744.095ZM915.485 693.558H897.178V719.099H916.113C927.822 719.099 931.992 714.283 931.992 705.683C931.992 698.316 927.879 693.558 915.485 693.558ZM916.913 726.237H897.178V750.803L887.897 750.86V686.478L915.399 686.392C935.219 686.363 941.959 694.705 941.959 705.597C941.959 717.608 934.077 726.237 916.913 726.237ZM975.259 709.295C962.807 709.295 956.296 716.892 956.296 727.727C956.296 738.104 962.807 746.13 975.259 746.13C987.768 746.13 994.394 738.104 994.394 727.727C994.394 716.892 988.196 709.295 975.259 709.295ZM975.259 752.322C956.781 752.322 946.757 743.407 946.757 727.727C946.757 712.936 956.781 703.075 975.259 703.075C994.222 703.075 1003.82 712.191 1003.82 727.727C1003.82 743.407 993.88 752.322 975.259 752.322ZM1132.36 709.295C1123.22 709.295 1116.54 713.824 1115.28 723.915H1148.18C1148.01 713.337 1140.19 709.295 1132.36 709.295ZM1114.86 730.164C1115.8 739.451 1121.23 746.274 1131.85 746.274C1139.56 746.274 1145.04 743.407 1147.13 736.929H1156.5C1154.78 748.137 1143.7 752.322 1132.22 752.322C1115.51 752.322 1105.95 743.149 1105.95 728.616C1105.95 711.99 1115.91 703.075 1132.56 703.075C1148.73 703.075 1157.55 711.847 1157.55 727.441V730.164H1114.86ZM1504.97 709.295C1495.84 709.295 1489.12 713.824 1487.84 723.915H1520.77C1520.6 713.337 1512.77 709.295 1504.97 709.295ZM1487.44 730.164C1488.38 739.451 1493.75 746.274 1504.43 746.274C1512.14 746.274 1517.63 743.407 1519.65 736.929H1529.08C1527.37 748.137 1516.28 752.322 1504.8 752.322C1488.07 752.322 1478.53 743.149 1478.53 728.616C1478.53 711.99 1488.52 703.075 1505.15 703.075C1521.31 703.075 1530.16 711.847 1530.16 727.441V730.164H1487.44ZM1319.48 691.465C1321.91 691.465 1324.91 691.895 1329.34 692.727V686.191C1325.52 685.471 1321.65 685.116 1317.77 685.13C1304.66 685.13 1300.49 692.01 1300.49 702.903V704.795H1289.24V711.101H1300.49V750.774H1309.46V711.073H1327.88V704.795H1309.46V701.126C1309.46 693.902 1312.46 691.465 1319.48 691.465ZM1256.25 709.295C1243.86 709.295 1237.18 716.892 1237.18 727.727C1237.18 738.047 1243.86 746.13 1256.25 746.13C1268.65 746.13 1275.44 738.075 1275.44 727.727C1275.44 716.892 1269.19 709.295 1256.25 709.295ZM1256.25 752.322C1237.69 752.322 1227.69 743.407 1227.69 727.727C1227.69 712.936 1237.8 703.075 1256.25 703.075C1275.3 703.075 1284.81 712.191 1284.81 727.727C1284.81 743.407 1274.76 752.322 1256.25 752.322ZM1646.83 714.57C1645.63 711.175 1643.4 708.242 1640.45 706.181C1637.51 704.12 1634 703.034 1630.41 703.075C1626.93 703.114 1623.52 704.06 1620.52 705.819C1617.51 707.577 1615.02 710.089 1613.27 713.108L1612.81 704.795H1604.36C1604.59 708.287 1604.69 711.787 1604.65 715.286V750.774H1613.64V728.559C1613.64 714.885 1621.44 709.295 1628.41 709.295C1635.89 709.295 1639.66 714.57 1639.66 727.154V750.803H1648.54V728.587C1648.54 712.42 1658.71 709.324 1663.11 709.324C1672.13 709.324 1674.67 715.458 1674.67 727.613V750.832H1683.64V724.115C1683.64 708.923 1675.56 703.104 1664.51 703.104C1660.77 703.095 1657.11 704.173 1653.96 706.207C1650.82 708.242 1648.36 711.147 1646.83 714.57ZM1717.68 752.322C1734.93 752.322 1743.1 747.392 1743.1 737.617C1743.1 730.794 1739.1 727.441 1730.56 725.692L1715.43 722.711C1708.66 721.306 1705.72 719.844 1705.72 716.347C1705.72 711.703 1711.06 709.353 1719.03 709.353C1725.48 709.353 1731.48 710.929 1732.11 716.748H1741.36C1741.36 705.855 1729.36 703.075 1719.28 703.075C1707.29 703.075 1696.81 707.346 1696.81 717.408C1696.81 724.66 1702.2 727.727 1709.2 729.16L1723.57 732.228C1728.71 733.288 1733.71 734.349 1733.71 738.534C1733.71 743.407 1728.71 746.274 1718.77 746.274C1710.66 746.274 1704.77 743.981 1703.98 737.617H1694.35C1695.06 748.309 1704.86 752.322 1717.68 752.322ZM1390.42 693.558H1374.92V743.551H1391.82C1413.56 743.551 1418.73 731.712 1418.73 718.554C1418.73 702.072 1413.21 693.558 1390.42 693.558ZM1393.05 750.774H1365.49V686.392H1392.62C1417.41 686.392 1428.44 697.858 1428.44 718.497C1428.44 739.222 1415.64 750.774 1393.05 750.774ZM1580.26 730.45C1580.26 741.544 1574.06 746.274 1562.98 746.274C1554.38 746.274 1550.76 742.633 1550.76 737.473C1550.76 727.211 1568.78 728.272 1575.6 728.272H1580.26V730.45ZM1581.11 750.803H1589.42C1589.14 747.85 1589.02 744.883 1589.05 741.917V719.328C1589.05 708.235 1580.03 703.075 1567.12 703.075C1557.04 703.075 1545.59 705.884 1544.5 716.892H1554.01C1554.52 712.277 1559.07 709.295 1567.15 709.295C1575.03 709.295 1580.29 712.19 1580.29 720.417V722.137H1575.12C1564.81 722.137 1541.27 721.363 1541.27 737.473C1541.27 746.388 1549.13 752.322 1560.69 752.322C1569.6 752.322 1575.37 751.262 1580.51 744.382L1581.08 750.774" fill="white"/>
<path d="M1673.85 561.181H1730.39L1701.83 516.147L1673.85 561.181ZM1580.46 631.755V612.177L1600.16 609.883C1606.99 609.023 1609.87 602.774 1610.73 601.284L1659.91 521.02C1663.91 514.714 1659.99 509.153 1654.8 508.608L1629.01 505.512V485.762H1741.02C1747.3 485.762 1751.3 490.033 1753.87 493.788L1819.35 594.117C1824.49 602.172 1828.49 608.45 1835.06 609.367L1855.6 611.661V631.755H1729.62V611.947L1745.61 609.941C1753.33 609.081 1759.61 605.641 1753.33 596.181L1747.33 587.008H1657.85L1651 598.188C1646.71 605.068 1651 609.081 1657.57 609.941L1673.62 611.947V631.755H1580.46ZM1474.7 603.634H1437.49V513.567H1474.7C1510.12 513.567 1524.97 521.909 1524.97 558.601C1524.97 595.579 1510.12 603.634 1474.7 603.634ZM1496.98 485.762H1352.84V505.541L1370.89 507.404C1377.66 508.408 1380.31 513.252 1380.31 519.845V598.474C1380.31 603.95 1378.09 609.081 1372.09 609.941L1352.75 612.435V631.698L1496.98 631.755C1563.24 631.755 1591.85 599.334 1591.85 556.594C1591.85 518.182 1563.24 485.79 1496.95 485.79M570.404 631.755H686.983V612.205L667.02 609.912C662.365 609.367 657.852 606.472 657.852 596.726V573.22H747.585V595.579C747.585 602.172 746.443 608.479 738.732 609.367L718.427 611.661V631.755H835.034V611.661L814.471 609.367C810.444 608.794 805.875 605.641 805.875 597.328V521.278C805.875 513.567 808.702 508.379 814.728 507.806L835.005 505.512V485.762H718.455V505.254L738.732 507.834C745.586 508.694 747.585 514.141 747.585 521.278V543.953H657.881V521.02C657.881 512.392 661.308 508.408 667.306 507.834L687.011 505.541V485.762H570.69V505.541L590.11 507.834C597.821 508.694 599.82 514.427 599.563 521.909V595.866C599.563 604.179 597.25 609.081 589.853 609.912L570.404 612.205V631.755ZM959.637 508.121C926.509 508.121 907.602 520.447 907.602 558.285C907.602 596.726 926.48 609.081 959.637 609.081C992.794 609.081 1011.64 596.726 1011.64 558.285C1011.64 520.447 992.794 508.121 959.637 508.121ZM840.745 557.999C840.745 512.134 877.587 480 959.894 480C1041.66 480 1078.47 512.163 1078.47 558.027C1078.47 605.039 1041.63 636.944 959.894 636.944C877.615 636.944 840.745 605.068 840.745 558.027M1085.01 631.755H1178.17V612.205L1158.18 609.912C1152.44 609.367 1149.01 604.494 1149.01 597.901V523.6L1226.47 625.993C1229.04 629.462 1233.86 631.755 1238.46 631.755H1311.63V521.049C1311.63 515.832 1313 508.723 1320.48 507.806L1340.79 505.512V485.762H1247.6V505.254L1267.88 507.806C1275.02 508.665 1276.73 514.714 1276.73 521.594V593.888L1199.85 492.04C1198.52 490.091 1196.73 488.499 1194.64 487.405C1192.56 486.31 1190.24 485.746 1187.88 485.762H1085.01V505.541L1104.43 507.806C1111.29 508.866 1113.86 512.306 1113.86 521.909V595.866C1113.86 604.666 1111.52 608.851 1104.15 609.912L1085.01 612.205V631.755Z" fill="white"/>
</svg>
